<?xml version="1.0" encoding="UTF-8"?>
<svg xmlns="http://www.w3.org/2000/svg" xmlns:xlink="http://www.w3.org/1999/xlink" version="1.1" id="Capa_1" x="0px" y="0px" viewBox="0 0 512 512" style="enable-background:new 0 0 512 512;" xml:space="preserve" width="512" height="512">
<g>

		<circle style="fill:none;stroke:#000000;stroke-width:15;stroke-linecap:round;stroke-linejoin:round;stroke-miterlimit:10;" cx="256" cy="197.984" r="120.476"/>
	<g>

			<line style="fill:none;stroke:#000000;stroke-width:15;stroke-linecap:round;stroke-linejoin:round;stroke-miterlimit:10;" x1="284.474" y1="130.851" x2="229.31" y2="262.295"/>

			<ellipse style="fill:none;stroke:#000000;stroke-width:15;stroke-linecap:round;stroke-linejoin:round;stroke-miterlimit:10;" cx="218.749" cy="153.049" rx="24.374" ry="28.324"/>

			<ellipse style="fill:none;stroke:#000000;stroke-width:15;stroke-linecap:round;stroke-linejoin:round;stroke-miterlimit:10;" cx="293.251" cy="242.919" rx="24.374" ry="28.324"/>
	</g>
	<path style="fill:none;stroke:#000000;stroke-width:15;stroke-linecap:round;stroke-linejoin:round;stroke-miterlimit:10;" d="&#10;&#9;&#9;M450.278,421.897l-64.288-102.391c-0.028,0.267-0.074,0.53-0.097,0.798l-0.006,0.073c-2.314,26.577-27.604,44.961-53.598,38.964&#10;&#9;&#9;l-0.095-0.022c-15.811-3.648-32.344,1.724-42.992,13.968l-0.076,0.088c-6.605,7.596-15.171,12.32-24.216,14.182l67.879,108.109&#10;&#9;&#9;c7.303,11.631,24.19,11.809,31.736,0.334l21.038-31.991c3.006-4.572,7.85-7.613,13.274-8.334l37.955-5.049&#10;&#9;&#9;C450.403,448.816,457.581,433.529,450.278,421.897z"/>
	<path style="fill:none;stroke:#000000;stroke-width:15;stroke-linecap:round;stroke-linejoin:round;stroke-miterlimit:10;" d="&#10;&#9;&#9;M222.876,373.376l-0.076-0.088c-10.647-12.244-27.181-17.616-42.992-13.968l-0.096,0.022&#10;&#9;&#9;c-25.994,5.997-51.284-12.388-53.598-38.964l-0.006-0.073c-0.023-0.268-0.069-0.531-0.097-0.798L61.722,421.897&#10;&#9;&#9;c-7.303,11.631-0.126,26.919,13.488,28.729l37.955,5.049c5.424,0.721,10.267,3.762,13.274,8.334l21.038,31.991&#10;&#9;&#9;c7.546,11.475,24.434,11.297,31.736-0.334l67.879-108.109C238.047,385.697,229.482,380.972,222.876,373.376z"/>
	<path style="fill:none;stroke:#000000;stroke-width:15;stroke-linecap:round;stroke-linejoin:round;stroke-miterlimit:10;" d="&#10;&#9;&#9;M432.992,220.629l-0.001-0.002c-8.387-13.93-8.387-31.355,0-45.285l0.002-0.003c13.774-22.877,4.102-52.649-20.487-63.063h0&#10;&#9;&#9;c-14.964-6.337-25.203-20.423-26.612-36.613l-0.006-0.073c-2.314-26.577-27.604-44.961-53.598-38.964l-0.096,0.022&#10;&#9;&#9;c-15.811,3.648-32.344-1.724-42.992-13.969l-0.076-0.088c-17.498-20.123-48.749-20.123-66.247,0L222.8,22.68&#10;&#9;&#9;c-10.647,12.244-27.181,17.616-42.992,13.968l-0.095-0.022c-25.994-5.997-51.284,12.388-53.598,38.964l-0.006,0.073&#10;&#9;&#9;c-1.41,16.189-11.648,30.275-26.612,36.612l0,0c-24.589,10.414-34.261,40.186-20.487,63.063l0.001,0.002&#10;&#9;&#9;c8.387,13.93,8.387,31.355,0,45.285l-0.002,0.003c-13.774,22.877-4.102,52.649,20.487,63.063h0&#10;&#9;&#9;c14.964,6.337,25.203,20.423,26.612,36.613l0.006,0.073c2.314,26.577,27.604,44.961,53.598,38.964l0.096-0.022&#10;&#9;&#9;c15.811-3.648,32.344,1.724,42.992,13.968l0.076,0.088c17.498,20.123,48.749,20.123,66.247,0l0.076-0.088&#10;&#9;&#9;c10.647-12.244,27.181-17.616,42.992-13.968l0.095,0.022c25.994,5.997,51.284-12.388,53.598-38.964l0.006-0.073&#10;&#9;&#9;c1.41-16.189,11.648-30.275,26.612-36.612l0,0C437.094,273.279,446.766,243.506,432.992,220.629z"/>
</g>















</svg>
