<svg width="61" height="60" viewBox="0 0 61 60" fill="none" xmlns="http://www.w3.org/2000/svg">
<path d="M8.02499 28.05V39.275C8.02499 50.5 12.525 55 23.75 55H37.225C48.45 55 52.95 50.5 52.95 39.275V28.05" stroke="#040627" stroke-width="3" stroke-linecap="round" stroke-linejoin="round"/>
<path d="M30.5 30C35.075 30 38.45 26.275 38 21.7L36.35 5H24.675L23 21.7C22.55 26.275 25.925 30 30.5 30Z" stroke="#040627" stroke-width="3" stroke-linecap="round" stroke-linejoin="round"/>
<path d="M46.275 30C51.325 30 55.025 25.9 54.525 20.875L53.825 14C52.925 7.5 50.425 5 43.875 5H36.25L38 22.525C38.425 26.65 42.15 30 46.275 30Z" stroke="#040627" stroke-width="3" stroke-linecap="round" stroke-linejoin="round"/>
<path d="M14.6 30C18.725 30 22.45 26.65 22.85 22.525L23.4 17L24.6 5H16.975C10.425 5 7.92501 7.5 7.02501 14L6.35001 20.875C5.85001 25.9 9.55001 30 14.6 30Z" stroke="#040627" stroke-width="3" stroke-linecap="round" stroke-linejoin="round"/>
<path d="M30.5 42.5C26.325 42.5 24.25 44.575 24.25 48.75V55H36.75V48.75C36.75 44.575 34.675 42.5 30.5 42.5Z" stroke="#040627" stroke-width="3" stroke-linecap="round" stroke-linejoin="round"/>
</svg>
