<svg width="61" height="60" viewBox="0 0 61 60" fill="none" xmlns="http://www.w3.org/2000/svg">
<path d="M53.2 21.4501V38.55C53.2 41.35 51.7 43.9501 49.275 45.3751L34.425 53.9501C32 55.3501 29 55.3501 26.55 53.9501L11.7 45.3751C9.275 43.9751 7.775 41.375 7.775 38.55V21.4501C7.775 18.6501 9.275 16.05 11.7 14.625L26.55 6.05C28.975 4.65 31.975 4.65 34.425 6.05L49.275 14.625C51.7 16.05 53.2 18.6251 53.2 21.4501Z" stroke="#040627" stroke-width="3" stroke-linecap="round" stroke-linejoin="round"/>
<path d="M30.5 27.5C33.7171 27.5 36.325 24.892 36.325 21.675C36.325 18.4579 33.7171 15.8501 30.5 15.8501C27.2829 15.8501 24.675 18.4579 24.675 21.675C24.675 24.892 27.2829 27.5 30.5 27.5Z" stroke="#040627" stroke-width="3" stroke-linecap="round" stroke-linejoin="round"/>
<path d="M40.5 41.6499C40.5 37.1499 36.025 33.5001 30.5 33.5001C24.975 33.5001 20.5 37.1499 20.5 41.6499" stroke="#040627" stroke-width="3" stroke-linecap="round" stroke-linejoin="round"/>
</svg>
